<svg xmlns="http://www.w3.org/2000/svg" id="Layer_1" data-name="Layer 1" viewBox="0 0 288 288"><defs><style>.cls-1{fill:#231f20;}</style></defs><path class="cls-1" d="M263.15,127.4C257.59,109,246.77,93.29,231,80.8a2.74,2.74,0,0,1-.32-.29,3,3,0,0,1,.2-.38c2-3.22,3.88-6.45,5.61-9.46A12.5,12.5,0,1,0,215,57.9c-2.17,3.56-4,6.75-5.71,9.74l-.1.16-.23-.09a93.27,93.27,0,0,0-24.34-6.6h0c0-5,0-9.41,0-13.43a4.53,4.53,0,0,0,.73,0h.19a5.3,5.3,0,1,0,0-10.59H158.68a5.3,5.3,0,1,0-.1,10.59h.21a6.14,6.14,0,0,0,.86,0h0c-.06,4.82-.06,9.12,0,13.16a1.07,1.07,0,0,1,0,.18l-.27,0a92.47,92.47,0,0,0-25.69,7.18A94.89,94.89,0,0,0,98.38,95.32a1.4,1.4,0,0,1-1.31.61h0q-16.55,0-33.1,0H56.91a9.84,9.84,0,0,0-1.59.08,5.31,5.31,0,0,0-2.61,9.41,6.12,6.12,0,0,0,4,1.16h71.41c1.63,0,3.25,0,4.87,0a5.25,5.25,0,0,0,5.22-6.32c-.45-2.61-2.68-4.3-5.66-4.3-6.79,0-13.58,0-20.37,0C128.66,79.79,147.92,71.45,169.61,71a5.31,5.31,0,0,0-2.78,4.72c0,1.18,0,2.35,0,3.53v5c0,.64,0,1.28,0,1.92a5.21,5.21,0,0,0,5.2,5.28h.08a5.18,5.18,0,0,0,5.29-5.17c.06-3.67.06-7.28,0-10.71A5.17,5.17,0,0,0,174.66,71q3.94.14,8,.61a80.36,80.36,0,0,1,51.8,26.82c14.59,16.21,22.06,34.6,22.34,54.84a5.31,5.31,0,0,0-4.88-3c-1.14,0-2.29,0-3.43,0h-3.2c-1.21,0-2.42,0-3.64,0a5.29,5.29,0,1,0,0,10.58c1.65,0,3.34,0,5,0l5.21,0a5.31,5.31,0,0,0,4.83-2.9,95.41,95.41,0,0,1-1.6,13.9c-3.81,20.29-14.21,37.21-30.88,50.3a82.11,82.11,0,0,1-49.76,18,5.21,5.21,0,0,0,1.21-.83,5.69,5.69,0,0,0,1.69-4c0-1.17,0-2.33,0-3.5v-3.14c0-1.22,0-2.44,0-3.66a5.29,5.29,0,1,0-10.58.1c0,2.95,0,6.16,0,10.1a5.37,5.37,0,0,0,2.76,4.9c-.7,0-1.4,0-2.11-.07-21.71-1.19-40.65-9.87-56.28-25.82a4.71,4.71,0,0,0,2.34-4.82A5.1,5.1,0,0,0,110.2,205a6.83,6.83,0,0,0-2.7-.39H50.65a8,8,0,0,0-1.26.06,5.26,5.26,0,0,0-4.51,6.25c.51,2.75,2.66,4.33,5.9,4.33h6.84c12.83,0,26.1,0,39.15,0h0a1.93,1.93,0,0,1,1.77.83,91.65,91.65,0,0,0,14.78,14.56,93.6,93.6,0,0,0,49.82,19.87q4.68.44,9.29.44a95.15,95.15,0,0,0,82.19-47.72C268.26,179.31,271.12,153.8,263.15,127.4ZM227.64,64.17a2,2,0,0,1-.37,1.11L225.2,68.8q-1.63,2.79-3.26,5.59c-1-.68-2.09-1.3-3.14-1.92l2.1-3.56c1.12-1.92,2.24-3.83,3.4-5.73a1.74,1.74,0,0,1,2.1-.75,2,2,0,0,1,1.24,1.69ZM170.26,47.68c1.05,0,2.35,0,3.67,0,0,1.48,0,3,0,4.43v3.33h0v.47c0,1.46,0,2.93,0,4.39a17.92,17.92,0,0,0-3.66,0C170.29,56.31,170.3,52,170.26,47.68Z"></path><path class="cls-1" d="M162.2,193.21h.09a6,6,0,0,0,4.23-2l1.77-1.74,23.18-22.81q11.5-11.31,23-22.6a5.84,5.84,0,0,0,2-4.32h0a6.14,6.14,0,0,0-2-4.24l-12.8-13L199.22,120a5.93,5.93,0,0,0-4.2-2,6.06,6.06,0,0,0-4.24,2l-6.41,6.29c-7,6.84-14.17,13.91-21.22,20.89l-.06.06-.09-.09c-2.8-3.08-5.72-6.15-8.54-9.11l-.45-.47a5.39,5.39,0,0,0-8-.28c-5.33,5-10.76,10.12-16.14,15.22-2.88,2.73-2.95,5.59-.22,8.5q14.2,15.12,28.44,30.2A5.81,5.81,0,0,0,162.2,193.21ZM140.56,157c3.38-3.14,6.23-5.82,9.09-8.58q3.72,4,7.48,8l1.53,1.63a5.94,5.94,0,0,0,4.19,2.1,6.08,6.08,0,0,0,4.26-1.93l3.9-3.83q12-11.74,23.9-23.52c2.67,2.81,5.54,5.72,8.75,8.91Q188.08,155,172.5,170.35l-10.05,9.89-15.58-16.56-2.86-3-1-1.1C142.2,158.71,141.39,157.84,140.56,157Z"></path><path class="cls-1" d="M56,179c10.28,0,20.55,0,30.87,0a11,11,0,0,0,1.93-.12A5.27,5.27,0,0,0,93,172.27c-.5-1.8-2-3.94-6.12-3.94H25.21a9.28,9.28,0,0,0-2.17.21,5.25,5.25,0,0,0-3.6,7.42c1,2,2.8,3.08,5.43,3.08H56Z"></path><path class="cls-1" d="M36.36,142.84H97a6.15,6.15,0,0,0,1-.05,5.26,5.26,0,0,0,4.46-3.55,5.12,5.12,0,0,0-.58-4.74,5.72,5.72,0,0,0-4.79-2.31h-59c-.91,0-1.84,0-2.78,0a5.29,5.29,0,0,0-4.2,2.49,5.14,5.14,0,0,0-.36,4.8C31.66,141.71,33.56,142.84,36.36,142.84Z"></path></svg>