<svg xmlns="http://www.w3.org/2000/svg" id="Layer_1" data-name="Layer 1" viewBox="0 0 288 288"><path d="M259.39,143.89c0,63.68-51.65,115.48-115.25,115.48A115.37,115.37,0,1,1,259.39,143.89Zm-3.94,0a111.47,111.47,0,1,0-106,111.43A111.39,111.39,0,0,0,255.45,143.9Z"></path><path d="M215.81,143.92a71.8,71.8,0,1,1-72.39-71.7A71.8,71.8,0,0,1,215.81,143.92ZM144,76.1a67.88,67.88,0,1,0,67.85,68.27A67.86,67.86,0,0,0,144,76.1Z"></path><path d="M141.52,47.78c0,4.31,0,8.63,0,13,0,.82-.23,1-1,1-2.22,0-2.22,0-2.21-2.24,0-5.51.06-11,.07-16.53,0-.7.18-1,.9-.89a16.62,16.62,0,0,0,2.34,0c.59,0,.83.19,1,.72q2.17,6,4.39,12a.71.71,0,0,0,.29.38v-.83c0-3.82,0-7.65,0-11.47,0-.64.19-.81.82-.8,2.3,0,2.3,0,2.3,2.3,0,5.48,0,11,0,16.44,0,.77-.22,1-1,.92a10.91,10.91,0,0,0-2,0,1,1,0,0,1-1.22-.83c-1.48-4.28-3-8.55-4.52-12.82C141.67,48,141.63,47.81,141.52,47.78Z"></path><path d="M65.52,178c-1,.49-2,1-2.94,1.46-2.84,1.36-5.69,2.71-8.52,4.08-.55.26-.9.29-1.16-.38s-1.14-1.42-.86-2,1.24-.73,1.92-1.05c4.9-2.33,9.8-4.64,14.69-7,.72-.35,1-.25,1.32.49.35.92,1.21,1.86,1.1,2.68s-1.19,1.43-1.86,2.12l-7.93,8.19c1.71-.85,3.23-1.62,4.77-2.36,2.21-1.07,4.44-2.11,6.66-3.2.47-.23.73-.22.93.32.28.75,1.09,1.52.87,2.19s-1.28.74-2,1.08c-4.88,2.33-9.76,4.64-14.63,7-.66.31-1.07.35-1.31-.45a9,9,0,0,0-.53-1.14c-.83-1.84-.92-1.23.43-2.61,2.89-3,5.81-5.86,8.71-8.79.14-.14.26-.3.39-.45Z"></path><path d="M65.85,106c-3.54-1.38-7-2.84-10.53-4.26-1.73-.7-1.73-.7-1-2.43.49-1.16.49-1.16,1.66-.69,5.42,2.19,10.84,4.4,16.28,6.58.52.21.71.43.43,1a14.5,14.5,0,0,0-.88,2.17c-.19.58-.51.68-1.08.65-4.54-.21-9.08-.38-13.62-.57a.46.46,0,0,0-.36.14l1.79.71c3.46,1.39,6.91,2.8,10.38,4.15.62.24.68.5.4,1a5.46,5.46,0,0,0-.54,1.33c-.2.86-.63.79-1.3.51-5.42-2.22-10.84-4.44-16.28-6.62-.71-.29-1-.53-.59-1.31s.56-2.1,1.24-2.64,1.92-.06,2.9,0C58.45,105.77,62.15,105.89,65.85,106Z"></path><path d="M139.89,229.26c0,4.31,0,8.61,0,12.92,0,.68-.12.94-.88.92-2.36,0-2.36,0-2.32-2.35.09-5.39.2-10.79.25-16.18,0-.86.18-1.27,1.14-1.12s2.13-.31,2.8.26.73,1.66,1,2.53q1.8,5.06,3.58,10.11c.06.16.15.32.32.68-.25-4.35,0-8.48,0-12.61,0-.65.14-.87.84-.86,2.28,0,2.29,0,2.27,2.23-.06,5.54-.14,11.09-.19,16.63,0,.6-.13.87-.8.81a14.2,14.2,0,0,0-2.35-.06c-.6,0-.82-.25-1-.77q-2.16-6.39-4.36-12.78c0-.14-.12-.26-.18-.39Z"></path><path d="M203.62,210.72a3.8,3.8,0,0,1,3.54,1.17c1.5,1.44,2.62,3.23,4.2,4.6.24.2.11.35-.07.5l-.9.75c-1.52,1.26-1.54,1.27-2.9-.22-.83-.92-1.58-1.9-2.42-2.8-1.35-1.45-2.27-1.5-3.82-.28-1.16.91-1.16.91-.23,2,1.32,1.61,2.62,3.23,4,4.81.36.43.35.67-.1,1a14.39,14.39,0,0,0-1.61,1.31c-.42.41-.64.42-1-.07q-5.56-6.83-11.16-13.62a6.59,6.59,0,0,0-.44-.57c-.32-.3-.31-.5,0-.78,1.58-1.26,3.1-2.59,4.71-3.8s3.42-1.78,5.3-.68,3.31,2.79,3.21,5.25A9.48,9.48,0,0,1,203.62,210.72Zm-5.44-3.8c-.92,0-1.23.21-2.82,1.49-.43.34-.59.57-.14,1,.62.65,1.16,1.38,1.72,2.08,1.52,1.87,1.52,1.87,3.17.07a2.07,2.07,0,0,0,.49-2.63A3.23,3.23,0,0,0,198.18,206.92Z"></path><path d="M207.37,78.39c.62,2-.35,3.48-1.55,4.8a36.94,36.94,0,0,0-3,3.56c-.23.33-.39.37-.68.08a19.92,19.92,0,0,0-1.66-1.53c-.46-.36-.39-.66-.11-1a32.17,32.17,0,0,1,2.51-3l.37-.39c1.84-2.11,1.67-3.43-.63-5.05-.48-.34-.59.07-.78.27-1.57,1.66-3.14,3.32-4.67,5-.43.48-.68.5-1.11,0-.58-.64-1.67-1.17-1.75-1.84s1-1.37,1.62-2c3.6-3.89,7.23-7.75,10.82-11.64.49-.53.78-.7,1.38-.09,1.2,1.22,2.52,2.32,3.75,3.52,1.46,1.43,2.53,3.07,1.83,5.22a5.89,5.89,0,0,1-4.35,4.16A4.08,4.08,0,0,1,207.37,78.39Zm3-5.56a3.67,3.67,0,0,0,0-.55c-.33-1.22-1.38-1.85-2.22-2.65-.26-.25-.42.11-.56.27-.69.72-1.36,1.45-2,2.18-1.45,1.54-1.45,1.54.22,2.84a2.21,2.21,0,0,0,2.58.5A3.77,3.77,0,0,0,210.42,72.83Z"></path><path d="M122.74,226.17a20.19,20.19,0,0,1-3.64,9.58,5.81,5.81,0,0,1-6.82,2.15c-1.58-.46-3.13-1-4.7-1.52-.52-.16-.44-.46-.32-.83q2.11-6.26,4.22-12.53c.54-1.6,1.07-3.19,1.57-4.8.15-.47.34-.59.83-.42,1.49.53,3,1,4.51,1.54C121.49,220.47,122.78,222.35,122.74,226.17Zm-9.16,9a3.05,3.05,0,0,0,2.81-1.66,21.36,21.36,0,0,0,2.22-5.09,10.48,10.48,0,0,0,.65-3.34c0-1.82-.85-2.7-2.91-3.36-.47-.16-.68-.15-.85.37-1.23,3.76-2.5,7.51-3.74,11.26-.44,1.33-.35,1.45,1,1.72C113,235.13,113.32,235.15,113.58,235.18Z"></path><path d="M100,232.08a5.42,5.42,0,0,1-2.67-.64c-1.53-.76-3-1.61-4.55-2.38-.43-.22-.38-.43-.2-.77q4.37-8.14,8.69-16.29c.22-.4.41-.41.78-.21,1.6.89,3.26,1.68,4.82,2.64a5.69,5.69,0,0,1,2.61,6.86,19.55,19.55,0,0,1-5.23,9.11A5.67,5.67,0,0,1,100,232.08Zm6.25-13a3.75,3.75,0,0,0-2.71-3.21c-.38-.1-.4.17-.49.35-2,3.71-4,7.43-6,11.14-.21.4-.2.59.22.84,2,1.18,3.42,1,4.92-.81a22.54,22.54,0,0,0,3.46-6A7.08,7.08,0,0,0,106.24,219.11Z"></path><path d="M108.83,66.26a5.68,5.68,0,0,1-3,5.21c-1.45.91-3,1.66-4.48,2.52-.57.33-.66-.13-.83-.44-1.83-3.31-3.64-6.63-5.46-9.95-1.1-2-2.18-4-3.3-6-.26-.46-.19-.65.25-.88,1.26-.65,2.49-1.35,3.73-2,3.57-1.93,6.18-1.5,8.77,1.65a19.9,19.9,0,0,1,4.19,8.48A8.63,8.63,0,0,1,108.83,66.26Zm-3.43.17a6.51,6.51,0,0,0-.13-.84,19.78,19.78,0,0,0-3.8-7.3c-1.54-1.87-3-2-5.07-.62-.35.23-.32.4-.15.72,2,3.71,4.08,7.42,6.12,11.14.11.19.17.42.53.31A3.47,3.47,0,0,0,105.4,66.43Z"></path><path d="M122.57,59c0,3.81-1.37,5.9-4.24,7-1.54.59-3.12,1.06-4.68,1.61-.61.21-.55-.32-.64-.59-1.3-3.81-2.57-7.62-3.85-11.43-.65-1.94-1.31-3.87-2-5.81-.09-.25-.35-.57.14-.72a51.47,51.47,0,0,1,6.19-1.91,5.44,5.44,0,0,1,5.63,2.43A19.83,19.83,0,0,1,122.57,59Zm-3.43,1.36a20.31,20.31,0,0,0-2.91-8.78,2.84,2.84,0,0,0-3.53-1.23c-1.42.42-1.42.42-1,1.83.1.31.22.62.32.93q1.73,5.1,3.44,10.21c.1.31.14.61.57.5C117.67,63.37,119.36,62.18,119.14,60.32Z"></path><path d="M95.13,207c-.22.26-.34.43-.48.59q-6.15,6.8-12.28,13.61c-.32.36-.51.34-.84,0a18.24,18.24,0,0,0-1.67-1.5c-.46-.36-.42-.6,0-1,1.66-1.79,3.26-3.62,4.93-5.4.44-.47.41-.73-.07-1.13-.83-.69-1.64-1.41-2.4-2.18-.42-.42-.63-.34-1,0-1.63,1.85-3.31,3.67-4.93,5.52-.36.41-.59.49-1,.09a14.64,14.64,0,0,0-1.61-1.45c-.53-.4-.37-.66,0-1.06,2.12-2.31,4.2-4.64,6.3-7s3.93-4.32,5.87-6.51c.37-.43.59-.45,1,0a15.85,15.85,0,0,0,1.61,1.45c.46.35.4.58,0,1-1.45,1.57-2.86,3.18-4.3,4.75-.34.36-.4.57,0,.91.86.71,1.7,1.45,2.49,2.23.43.43.66.4,1,0,1.38-1.59,2.83-3.13,4.21-4.71.37-.42.61-.45,1,0s1.11,1,1.67,1.51A5,5,0,0,0,95.13,207Z"></path><path d="M177.24,59.42c-.32,0-.35.23-.43.42-1,2.29-2,4.57-2.94,6.86-.24.59-.51.72-1.05.38a12.38,12.38,0,0,0-1.21-.6c-1.26-.6-1.27-.6-.72-1.84,2.31-5.28,4.64-10.55,6.94-15.83.28-.65.53-.8,1.15-.44a8.34,8.34,0,0,0,1.65.72c.73.22.72.56.43,1.18-.85,1.86-1.62,3.75-2.47,5.61-.24.51-.16.74.35.94,1,.42,2.05.86,3.05,1.34.53.26.72.09.92-.39.8-1.88,1.65-3.74,2.43-5.62.27-.64.58-.86,1.21-.47a6.16,6.16,0,0,0,.9.41c1.53.67,1.51.67.86,2.15-2.27,5.14-4.54,10.28-6.76,15.44-.34.78-.62,1.15-1.46.6a6.73,6.73,0,0,0-1.64-.73c-.58-.19-.55-.45-.33-.92,1-2.25,2-4.51,3-6.76.21-.48.19-.72-.35-.93-1-.4-2-.88-3.06-1.33Z"></path><path d="M82.8,73.32a3,3,0,0,1-.51-.36c-1.46-1.52-2.9-3.06-4.39-4.55-.4-.4-.4-.63,0-1a15.89,15.89,0,0,0,1.56-1.51c.4-.44.62-.33,1,.06Q86.73,72.54,93,79.06c.4.41.51.71,0,1a2,2,0,0,0-.27.24c-.61.51-1.12,1.58-1.77,1.5s-1.17-1-1.73-1.62c-1.3-1.34-2.6-2.68-3.86-4-.38-.41-.6-.42-1,0-.77.8-1.57,1.57-2.41,2.31-.43.38-.38.6,0,1,1.72,1.74,3.37,3.52,5.09,5.26.45.45.45.72,0,1.12a14.48,14.48,0,0,0-1.49,1.44c-.39.44-.63.34-1-.05q-6.24-6.54-12.5-13c-.47-.48-.52-.77,0-1.19s1.24-1.7,2-1.64,1.24,1.11,1.85,1.74q1.56,1.62,3.11,3.26c.19.2.33.44.64.13.94-.93,1.9-1.85,2.85-2.77A2.66,2.66,0,0,0,82.8,73.32Z"></path><path d="M177.51,224.32c-.06-.16-.14-.36-.21-.56-.75-1.93-1.49-3.86-2.26-5.78-.18-.46-.16-.74.37-.84.06,0,.11,0,.17-.06.85-.27,1.79-1.12,2.47-.76s.74,1.49,1.06,2.3c1.9,4.92,3.78,9.86,5.71,14.77.29.74.3,1.15-.55,1.34s-1.66,1.05-2.31.68-.69-1.39-1-2.14c-.67-1.71-1.35-3.41-2-5.13-.2-.53-.39-.7-1-.45-1,.43-2.06.8-3.11,1.15-.51.16-.66.36-.44.89.89,2.16,1.75,4.34,2.62,6.51.43,1.08.42,1.09-.68,1.53-2.21.89-2.2.88-3.06-1.35-1.34-3.49-2.73-7-4-10.48-.6-1.63-1.28-3.23-1.93-4.84-.25-.63-.12-.9.52-1.07a9,9,0,0,0,1.59-.62c.66-.34,1-.24,1.28.52.73,1.9,1.32,3.86,2.17,5.72.23.49.38.56.9.4,1.09-.34,2.12-.82,3.18-1.24C177.25,224.72,177.55,224.7,177.51,224.32Z"></path><path d="M210.17,94.78A4.14,4.14,0,0,1,206.65,93a4.67,4.67,0,0,1-.27-6,21.75,21.75,0,0,1,6.8-6.11,11.31,11.31,0,0,1,4.92-1.89,6,6,0,0,1,6,3.85A5.23,5.23,0,0,1,222.6,89c-.38.33-.59.35-.88-.09a17.07,17.07,0,0,0-1.31-1.73c-.36-.41-.29-.65.07-1a2.09,2.09,0,0,0,.34-3,2.23,2.23,0,0,0-2.52-.73,6.83,6.83,0,0,0-1.76.68A27.71,27.71,0,0,0,210.1,88a4.55,4.55,0,0,0-1,1.41,2.13,2.13,0,0,0,.34,2.43,2,2,0,0,0,2.29.59,10.83,10.83,0,0,0,3-1.83.36.36,0,0,0,.09-.6,8.62,8.62,0,0,0-.78-1c-.62-.58-.4-.92.2-1.35,1.66-1.2,1.64-1.22,2.87.41.69.91,1.36,1.84,2.08,2.73.3.38.34.58-.1.91q-3.95,2.94-7.85,5.93c-.32.24-.55.32-.78-.09a6,6,0,0,0-.37-.51C209.23,95.91,209.23,95.91,210.17,94.78Z"></path><path d="M219.48,206.09c.81,2.92-2.52,6.78-6.32,5.47a19.42,19.42,0,0,1-6.64-4.4,13.8,13.8,0,0,1-3.94-5.31c-1.37-3.72,1.71-8.11,5.6-7.94a6,6,0,0,1,3.22,1.26c.32.23.4.4.1.7a5.83,5.83,0,0,0-.65.75c-.69.93-1.31,1.74-2.66.79-.72-.51-1.57-.09-2.17.56a2.18,2.18,0,0,0-.36,2.44,6.88,6.88,0,0,0,1.43,2.17,29.2,29.2,0,0,0,5.5,4.79,5.53,5.53,0,0,0,2,.86,2.09,2.09,0,0,0,2.26-.94,1.91,1.91,0,0,0,.06-2.27,12.17,12.17,0,0,0-2.39-2.57c-.23-.21-.41-.23-.58,0a.8.8,0,0,1-.13.13c-.46.47-.83,1.4-1.35,1.34-.78-.11-1.3-1-2-1.51-.25-.21-.23-.36,0-.59q1.74-2,3.45-3.94c.34-.4.56-.14.81.08,2.46,2.16,4.92,4.34,7.39,6.5.29.25.35.44.05.71s-.32.36-.49.53C220.71,206.79,220.71,206.79,219.48,206.09Z"></path><path d="M72.72,101.39a10.6,10.6,0,0,1-4.59-1.32,21.35,21.35,0,0,1-7.26-5.36,5.92,5.92,0,0,1,2.77-9.49,6.09,6.09,0,0,1,3.56.15,22,22,0,0,1,9.72,6.29,5.9,5.9,0,0,1-2.72,9.59A8.85,8.85,0,0,1,72.72,101.39Zm.36-3.45A2,2,0,0,0,75,94.83a6.1,6.1,0,0,0-1.47-1.69,32.49,32.49,0,0,0-6-3.92,7.72,7.72,0,0,0-2.38-.77,2.09,2.09,0,0,0-2.13.87,2,2,0,0,0-.09,2.29,4.9,4.9,0,0,0,1.07,1.33,25.33,25.33,0,0,0,7.44,4.65A3.84,3.84,0,0,0,73.08,97.94Z"></path><path d="M67.27,203.7c-2.68,0-4.14-1.54-5.23-3.47a4.91,4.91,0,0,1,.38-5.53,21.37,21.37,0,0,1,8.63-6.8,7.25,7.25,0,0,1,4.81-.71,5.89,5.89,0,0,1,3.87,8.11,13.3,13.3,0,0,1-4.21,4.52,18.63,18.63,0,0,1-7.22,3.75C67.89,203.65,67.47,203.67,67.27,203.7Zm-.66-3.38a4.6,4.6,0,0,0,1.6-.3,25.3,25.3,0,0,0,7.93-5.53,4.63,4.63,0,0,0,.7-1,2,2,0,0,0-.19-2.28,2,2,0,0,0-2.15-.79,5.33,5.33,0,0,0-1.12.32,24.85,24.85,0,0,0-7.49,5.23,4.52,4.52,0,0,0-1.11,1.73A2,2,0,0,0,66.61,200.32Z"></path><path d="M63,147a7.35,7.35,0,1,1-14.69-.44A7.35,7.35,0,0,1,63,147Zm-9.06,3.87.48-.43c1.94-1.84,3.86-3.71,5.85-5.5.78-.7,0-.91-.23-1.31s-.66-.51-1.12,0c-1.37,1.36-2.81,2.64-4.16,4-.54.54-.89.7-1.38,0-.3-.45-.78-.77-1.09-1.2s-.68-.26-.9.08-1.14.43-.5,1.14c.89,1,1.79,2,2.69,2.93Z"></path><path d="M235.66,154.36a7.34,7.34,0,1,1,7.43-7.26A7.41,7.41,0,0,1,235.66,154.36ZM232,146a14.24,14.24,0,0,0-1.2,1.1c-.26.31.14.47.29.65.81.89,1.66,1.74,2.43,2.66.41.47.64.4,1,0,1.79-1.73,3.61-3.44,5.42-5.15.9-.86.87-.83.06-1.74-.37-.41-.58-.34-.92,0-1.19,1.15-2.39,2.28-3.6,3.41-1.45,1.36-1.46,1.36-2.81-.15C232.47,146.55,232.24,146.31,232,146Z"></path><path d="M182,71.11c2.59-2.45,5.11-4.86,7.64-7.25,2.12-2,4.26-4,6.36-6a.83.83,0,0,1,1.29-.09,26.8,26.8,0,0,0,2.55,1.69.7.7,0,0,1,.35,1Q196.94,69.2,193.69,78c-.23.63-.43.65-.92.28A15.53,15.53,0,0,0,190.9,77a.66.66,0,0,1-.32-1c.51-1.12.92-2.29,1.43-3.4.2-.45.18-.69-.24-1-1-.59-1.87-1.2-2.78-1.85a.58.58,0,0,0-.9.08c-.87.92-1.8,1.78-2.66,2.71a.65.65,0,0,1-1.05.1C183.63,72.16,182.85,71.66,182,71.11ZM196.33,62c-1.25,1.14-2.88,2.61-4.47,4.11-1.18,1.11-1.16,1.13.23,2.06.27.18.55.36.81.56s.58.23.77-.24C194.61,66.19,195.58,63.86,196.33,62Z"></path><path d="M186.13,211.49c.26,0,.37.18.51.32q6.54,6.85,13.09,13.71c.3.32.43.5-.08.76-.72.37-1.41.79-2.09,1.23a.68.68,0,0,1-1.06-.18c-.82-1-1.69-1.88-2.51-2.84-.27-.31-.47-.37-.82-.15-1,.61-1.95,1.2-2.95,1.75-.41.23-.45.44-.29.86.45,1.17.83,2.38,1.26,3.56.16.42.16.7-.31.93a14.5,14.5,0,0,0-1.86,1.11c-.55.37-.72.22-.9-.37-1.35-4.36-2.73-8.71-4.1-13.06-.5-1.6-1-3.2-1.51-4.8-.13-.4-.14-.64.28-.88,1-.56,2-1.18,3-1.78Zm0,4.22-.12,0q1.28,3.65,2.54,7.27c.14.39.34.32.61.16.61-.37,1.22-.76,1.86-1.09.49-.26.39-.45.08-.79C189.44,219.45,187.79,217.58,186.14,215.71Z"></path><path d="M238.27,111.28a5,5,0,0,1-3.48,5c-.39.12-.45,0-.54-.31-.26-.8-.54-1.59-.82-2.38-.17-.47.16-.55.46-.71a2.32,2.32,0,0,0,1.51-2.14,2,2,0,0,0-2-1.9,2.66,2.66,0,0,0-2.58,2c-.42,1.42-.46,2.9-.79,4.34-.64,2.8-2.59,4.48-5.85,4.82-2.23.23-4.28-1.2-5.28-3.71a7.08,7.08,0,0,1-.57-3.86c.36-2.12,1.77-3.26,3.57-4.08.29-.14.45,0,.54.23a9.4,9.4,0,0,0,.31.94c.49,1.13.9,2.12-.67,2.88a2,2,0,0,0-.75,2.49,2,2,0,0,0,1.8,1.67,3.1,3.1,0,0,0,3-1.44,9,9,0,0,0,.91-3.37,21.41,21.41,0,0,1,.4-2.12,5.69,5.69,0,0,1,6.72-4,4.49,4.49,0,0,1,2.76,1.89A7.19,7.19,0,0,1,238.27,111.28Z"></path><path d="M235.59,181.48a7.8,7.8,0,0,1-2,5c-1.68,1.87-4,1.84-6,1.15-.37-.13-.37-.28-.22-.59.33-.71.66-1.42.94-2.15.18-.5.42-.57.94-.45,1.57.37,2.67-.11,3.18-1.31a2,2,0,0,0-.2-2.36,3.12,3.12,0,0,0-3-1.07,6.16,6.16,0,0,0-2.56,1.47,18.31,18.31,0,0,1-2.6,1.94,5.56,5.56,0,0,1-6.46-.68,4.89,4.89,0,0,1-1.39-5.73c1-3,3.3-4.48,6.1-3.92.29.06.56.21.84.29s.53.33.3.73-.28.66-.43,1c-.22.49-.33,1.13-.71,1.43s-.95-.14-1.45-.18a1.67,1.67,0,0,0-1.73.87,1.87,1.87,0,0,0,.11,2.42,2.87,2.87,0,0,0,4.19,0c.9-.86,1.93-1.52,2.89-2.29,2.55-2,6.82-.86,8.41,1.49A4.69,4.69,0,0,1,235.59,181.48Z"></path><path d="M228.23,190.64c.69.59,1.34,1.16,2,1.71.28.23.24.43.07.69-1.64,2.56-3.28,5.12-4.89,7.69-.25.4-.43.34-.77.12q-7.74-4.95-15.51-9.88c-.42-.27-.5-.43-.21-.87q2.38-3.66,4.7-7.37c.28-.45.49-.61,1-.24s1.67.7,1.84,1.35-.7,1.3-1.09,2c-.62,1-1.27,2-1.94,3-.25.37-.25.59.17.84,1,.6,2,1.22,3,1.87.41.28.64.26.91-.18.86-1.42,1.78-2.79,2.64-4.2.28-.47.49-.52,1-.22,2,1.26,2,1.25.73,3.27-.6.94-1.17,1.89-1.8,2.81-.27.41-.19.61.2.85,1.23.76,2.46,1.51,3.65,2.33.52.36.75.2,1-.26C226,194.2,227.08,192.45,228.23,190.64Z"></path><path d="M128.15,229.49c-.11.47.29.5.65.56,1.54.26,3.08.52,4.62.75.61.09.84.27.73,1-.35,2.3-.31,2.3-2.59,1.86-1.12-.22-2.24-.39-3.36-.61-.45-.09-.67,0-.75.48-.23,1.46-.47,2.91-.74,4.35-.11.58.11.73.63.81,1.87.3,3.73.65,5.6.94.55.09.57.32.44.77-.64,2.18-.64,2.19-2.87,1.84s-4.68-.77-7-1.12c-.68-.1-.8-.38-.69-1q1.53-8.79,3-17.58c.09-.59.27-.86.92-.75,2.89.51,5.8,1,8.7,1.47.37.06.44.22.36.55s-.08.53-.13.8c-.35,1.82-.35,1.81-2.21,1.46-1.33-.25-2.67-.43-4-.68-.42-.08-.61,0-.67.44C128.58,227,128.37,228.2,128.15,229.49Z"></path><path d="M219.47,107.83l-2.4.89a.51.51,0,0,1-.72-.3c-1.39-2.66-2.78-5.33-4.19-8-.25-.47,0-.62.33-.81l13.81-7.24c.8-.42,1.61-.81,2.39-1.27.45-.27.66-.16.88.28q2.06,4,4.14,7.9c.18.33.17.55-.21.67a.83.83,0,0,0-.16.09c-.69.35-1.47,1.07-2.06.94s-.79-1.24-1.17-1.91c-.58-1-1.12-2.13-1.65-3.2-.22-.45-.43-.53-.89-.25a33.22,33.22,0,0,1-3,1.54c-.6.28-.61.55-.31,1.08.79,1.42,1.49,2.88,2.27,4.3.27.47.16.63-.27.86-2.13,1.18-2.12,1.19-3.23-.92-.52-1-1.08-2-1.58-3-.19-.38-.36-.46-.74-.25-1.32.73-2.65,1.44-4,2.1-.48.24-.5.44-.26.88C217.5,104,218.46,105.91,219.47,107.83Z"></path><path d="M136.55,60.48c0,.3,0,.6,0,.9a.55.55,0,0,1-.53.67c-3,.44-6,.88-8.92,1.34-.45.07-.54-.13-.6-.53-.39-2.68-.81-5.35-1.21-8-.48-3.21-1-6.42-1.43-9.62-.18-1.17-.18-1.17,1-1.33,2.7-.39,5.41-.79,8.11-1.21.53-.09.81,0,.82.57,0,.79.61,1.78.13,2.3s-1.46.35-2.23.47c-1.16.18-2.32.37-3.48.51-.48.06-.59.24-.51.7.19,1.16.35,2.32.51,3.48.06.43.21.62.7.53,1.63-.27,3.28-.45,4.89-.76.65-.13.8.11.87.63a.22.22,0,0,0,0,.08c.35,2.18.35,2.18-1.82,2.52-1.13.18-2.26.34-3.39.5-.47.06-.72.16-.6.77.27,1.42.43,2.85.61,4.28.07.55.28.66.83.57,1.75-.3,3.52-.46,5.26-.8.9-.18,1.12.1,1,.91a4.86,4.86,0,0,0,0,.54Z"></path><path d="M158.78,58.23a24.76,24.76,0,0,1,2.95-10.51A5.83,5.83,0,0,1,170,45.48c2.39,1.3,2.8,3.93,2.4,6.18-.06.35-.25.36-.52.29l-1.22-.31a4.92,4.92,0,0,1-1.47-.42c-.51-.34,0-.93-.1-1.42a2.1,2.1,0,0,0-1.46-2,2.13,2.13,0,0,0-2.5,1,13.8,13.8,0,0,0-1.83,4.58,17.43,17.43,0,0,0-.86,6.21c.14,1.21.73,1.94,1.65,2.09a2,2,0,0,0,2.36-1.38c.39-1,.91-1.17,1.81-.79a8.53,8.53,0,0,0,1.13.3c1,.27,1,.26.58,1.27-1.77,3.9-5.27,4.51-8.71,2.63C159.31,62.55,158.84,60.65,158.78,58.23Z"></path><path d="M156.17,228.23a9.71,9.71,0,0,1,.21-2.16c.67-4,5.5-6.18,8.78-4a6.13,6.13,0,0,1,2.33,3.54c.12.37-.05.55-.4.65a17.66,17.66,0,0,0-2.36.58c-.27.11-.45,0-.54-.31s-.15-.46-.25-.68a2.13,2.13,0,0,0-2.31-1.49,2.23,2.23,0,0,0-1.85,2.15,12.62,12.62,0,0,0,.18,3.68,30.67,30.67,0,0,0,1.29,5.33,5.88,5.88,0,0,0,1.32,2.33,2,2,0,0,0,3.32-.83,2.45,2.45,0,0,0,.15-1.24c-.22-.89.32-1,1-1.1.35-.06.71-.09,1.06-.15,1.3-.24,1.51-.06,1.47,1.32a5.43,5.43,0,0,1-4.66,5.48c-3.1.57-5.15-.45-6.5-3.36A26.77,26.77,0,0,1,156.17,228.23Z"></path><path d="M87.05,60.18c.12.13.24.26.35.4Q92.85,68,98.29,75.39c.34.45.28.69-.18,1a19.71,19.71,0,0,0-1.82,1.33c-.38.32-.56.23-.83-.13Q90,70.15,84.59,62.74c-.32-.44-.24-.63.16-.9.66-.43,1.27-.91,1.9-1.37Z"></path><path d="M99.73,210.3l-.31.45q-5.2,7.42-10.4,14.85c-.37.53-.63.58-1.11.17a12.66,12.66,0,0,0-1.71-1.18c-.52-.3-.43-.56-.14-1q5.25-7.45,10.47-14.92c.32-.47.54-.5,1-.16s1.22.86,1.83,1.31C99.49,210,99.72,210,99.73,210.3Z"></path><path d="M158.35,200.81a7.31,7.31,0,0,1-2.6-.68c-3.45-1.31-6.91-2.61-10.35-3.95a3.85,3.85,0,0,0-2.89,0c-3.44,1.34-6.9,2.64-10.35,3.95l-.93.34a3.55,3.55,0,0,1-4.49-1.25c-2.41-2.93-4.84-5.85-7.14-8.86a5.18,5.18,0,0,0-3.69-2.08c-3.75-.51-7.49-1.12-11.22-1.77a3.58,3.58,0,0,1-3.27-3.43c-.62-4-1.22-8-1.84-11.94A3.21,3.21,0,0,0,98.37,169c-3-2.4-6-4.83-9-7.24a7.6,7.6,0,0,1-1.5-1.55,3,3,0,0,1-.43-3.11c1.58-4,3-8,4.58-12A3.16,3.16,0,0,0,92,142.8c-1.47-3.81-2.84-7.66-4.4-11.43a3.48,3.48,0,0,1,.89-4.15,47.81,47.81,0,0,1,4-3.29c2-1.61,3.94-3.18,5.91-4.76a3.4,3.4,0,0,0,1.3-2.28q.89-5.94,1.83-11.86c.36-2.32,1.48-3.24,4.23-3.65,3.68-.55,7.36-1.12,11-1.68a4,4,0,0,0,2.62-1.6c2.28-2.91,4.62-5.78,7-8.65a8.83,8.83,0,0,1,1.41-1.39,3.05,3.05,0,0,1,3.34-.52c3.87,1.56,7.8,3,11.7,4.47a3.42,3.42,0,0,0,2.68,0c4-1.55,8-3,12-4.56,1.36-.53,2.33.14,3.27.92a22.82,22.82,0,0,1,2.75,3.22c1.78,2.17,3.56,4.32,5.3,6.51a4.52,4.52,0,0,0,3.07,1.68c3.77.56,7.54,1.17,11.3,1.8a3.67,3.67,0,0,1,3.48,3.54q.93,5.88,1.83,11.76a3.59,3.59,0,0,0,1.35,2.36q4.33,3.47,8.66,7a11.7,11.7,0,0,1,1.31,1.23,3.32,3.32,0,0,1,.78,3.86c-1.54,3.81-2.94,7.68-4.42,11.52a3.4,3.4,0,0,0,0,2.62c1.54,4,3,7.92,4.55,11.86a2.73,2.73,0,0,1-.18,2.49,7,7,0,0,1-1.71,2c-2.75,2.21-5.44,4.49-8.25,6.61a5.45,5.45,0,0,0-2.25,3.89c-.47,3.54-1.09,7.07-1.62,10.6-.38,2.47-1.33,3.47-3.8,3.86-3.85.61-7.71,1.23-11.58,1.8a3.76,3.76,0,0,0-2.47,1.48q-3.65,4.55-7.31,9.07A3.73,3.73,0,0,1,158.35,200.81Zm20.2-74.19c-.13-.15-.26-.31-.4-.46-2.42-2.59-4.87-5.16-7.24-7.79-.62-.68-1-.61-1.6-.05q-2.64,2.58-5.34,5.12-15.28,14.34-30.56,28.68c-.55.52-.78.41-1.22-.08-4.38-4.8-8.79-9.58-13.18-14.39-.36-.39-.57-.52-1-.09q-4.06,3.78-8.2,7.49c-.4.36-.35.55,0,.92q10.93,11.9,21.86,23.83c.38.42.59.47,1,0,3.45-3.28,6.94-6.52,10.41-9.77l23-21.57,12.05-11.31C178.28,127,178.52,126.93,178.55,126.62Z"></path></svg>