<svg xmlns="http://www.w3.org/2000/svg" id="Layer_1" data-name="Layer 1" viewBox="0 0 288 288"><defs><style>.cls-1,.cls-11,.cls-5,.cls-8,.cls-9{fill:#3d3d3c;}.cls-10,.cls-2{fill:none;}.cls-2,.cls-6,.cls-9{stroke:#3d3d3c;}.cls-10,.cls-2,.cls-6,.cls-9{stroke-miterlimit:10;}.cls-2{stroke-width:1.31px;}.cls-3,.cls-6{fill:#fff;}.cls-4{fill:#d1d3d4;}.cls-5{font-size:21.4px;}.cls-11,.cls-5,.cls-8,.cls-9{font-family:BebasNeueBold, Bebas Neue;}.cls-6{stroke-width:5.26px;}.cls-7{fill:#231f20;}.cls-8{font-size:26.28px;}.cls-9{font-size:41.5px;stroke-width:0.69px;letter-spacing:0.04em;}.cls-10{stroke:#fff;stroke-width:2.63px;}.cls-11{font-size:16.58px;letter-spacing:0.1em;}</style></defs><polygon class="cls-1" points="251.88 137.52 243.45 147.98 249.54 159.95 239.12 168.43 242.57 181.41 230.61 187.52 231.28 200.93 218.31 204.42 216.18 217.69 202.77 218.42 197.95 230.96 184.68 228.89 177.34 240.14 164.8 235.34 155.27 244.81 144 237.51 132.73 244.81 123.2 235.34 110.66 240.14 103.32 228.89 90.05 230.96 85.23 218.42 71.81 217.69 69.69 204.42 56.72 200.93 57.39 187.52 45.43 181.41 48.88 168.43 38.46 159.95 44.55 147.98 36.12 137.52 44.55 127.06 38.46 115.09 48.88 106.61 45.43 93.63 57.39 87.52 56.72 74.1 69.69 70.61 71.82 57.35 85.23 56.62 90.05 44.08 103.32 46.15 110.66 34.89 123.2 39.7 132.73 30.22 144 37.53 155.27 30.22 164.8 39.7 177.34 34.9 184.68 46.15 197.95 44.08 202.77 56.62 216.19 57.35 218.31 70.61 231.28 74.11 230.61 87.52 242.57 93.63 239.12 106.61 249.54 115.09 243.45 127.06 251.88 137.52"></polygon><polygon class="cls-2" points="255.98 137.52 247.23 148.38 253.55 160.8 242.74 169.6 246.32 183.08 233.9 189.42 234.59 203.34 221.13 206.97 218.93 220.73 205 221.49 200 234.51 186.22 232.36 178.61 244.04 165.59 239.06 155.7 248.89 144 241.31 132.3 248.89 122.41 239.06 109.39 244.04 101.78 232.36 88 234.51 82.99 221.49 69.07 220.73 66.87 206.96 53.4 203.34 54.1 189.41 41.68 183.07 45.27 169.6 34.45 160.8 40.77 148.38 32.02 137.52 40.77 126.66 34.45 114.23 45.27 105.44 41.68 91.96 54.1 85.62 53.41 71.69 66.87 68.07 69.07 54.3 83 53.54 88 40.53 101.78 42.68 109.39 31 122.41 35.98 132.3 26.15 144 33.73 155.7 26.15 165.59 35.98 178.61 31 186.22 42.68 200 40.53 205.01 53.54 218.93 54.3 221.13 68.07 234.6 71.7 233.9 85.62 246.32 91.96 242.74 105.44 253.55 114.23 247.23 126.66 255.98 137.52"></polygon><circle class="cls-3" cx="144" cy="137.52" r="95.75"></circle><circle class="cls-4" cx="144" cy="137.52" r="91.59"></circle><circle class="cls-2" cx="144" cy="137.52" r="88.88"></circle><circle class="cls-2" cx="144" cy="137.52" r="55.54"></circle><text class="cls-5" transform="translate(75.86 186.66) rotate(49.94)">s</text><text class="cls-5" transform="translate(85.48 197.28) rotate(39.93)">a</text><text class="cls-5" transform="matrix(0.86, 0.51, -0.51, 0.86, 96.54, 205.93)">t</text><text class="cls-5" transform="translate(108.52 212.44) rotate(22.7)">i</text><text class="cls-5" transform="matrix(0.97, 0.25, -0.25, 0.97, 117.97, 216.07)">s</text><text class="cls-5" transform="translate(131.88 219.08) rotate(4.87)">f</text><text class="cls-5" transform="matrix(1, -0.08, 0.08, 1, 145.19, 219.77)">a</text><text class="cls-5" transform="matrix(0.97, -0.25, 0.25, 0.97, 160.07, 217.99)">c</text><text class="cls-5" transform="translate(173.96 213.78) rotate(-24.35)">t</text><text class="cls-5" transform="translate(186.14 207.66) rotate(-32.49)">i</text><text class="cls-5" transform="matrix(0.76, -0.66, 0.66, 0.76, 194.53, 201.97)">o</text><text class="cls-5" transform="translate(205.34 191.86) rotate(-51.18)">n</text><circle class="cls-6" cx="144" cy="137.52" r="48.34" transform="translate(-55.06 142.1) rotate(-45)"></circle><path class="cls-7" d="M76.37,177.12a78.37,78.37,0,0,1-2.24-75.61L87,108.17a63.78,63.78,0,0,0,1.83,61.56Z"></path><path class="cls-7" d="M199.82,165.93a63.56,63.56,0,0,0,0-57.29l12.9-6.53a78,78,0,0,1,0,70.37Z"></path><text class="cls-8" transform="translate(91.88 100.12) rotate(-49.88)">c</text><text class="cls-8" transform="translate(101.88 89.11) rotate(-35.9)">u</text><text class="cls-8" transform="translate(114.51 80.72) rotate(-22.03)">s</text><text class="cls-8" transform="translate(128.27 75.79) rotate(-8.71)">t</text><text class="cls-8" transform="translate(142.28 74.15) rotate(4.82)">o</text><text class="cls-8" transform="translate(157.21 75.78) rotate(20.59)">m</text><text class="cls-8" transform="matrix(0.81, 0.58, -0.58, 0.81, 174.47, 83.29)">e</text><text class="cls-8" transform="matrix(0.65, 0.76, -0.76, 0.65, 185.84, 92.14)">r</text><text class="cls-9" transform="translate(102.26 143.92)">100%</text><line class="cls-10" x1="68.98" y1="121.1" x2="78.98" y2="123.28"></line><line class="cls-10" x1="67.29" y1="140.08" x2="77.52" y2="139.7"></line><line class="cls-10" x1="70.37" y1="158.88" x2="80.18" y2="155.97"></line><line class="cls-10" x1="214.91" y1="162.63" x2="205.26" y2="159.22"></line><line class="cls-10" x1="218.96" y1="144.01" x2="208.77" y2="143.11"></line><line class="cls-10" x1="218.26" y1="124.97" x2="208.16" y2="126.63"></line><line class="cls-10" x1="212.84" y1="106.71" x2="203.47" y2="110.82"></line><line class="cls-10" x1="71.53" y1="112.22" x2="81.19" y2="115.59"></line><line class="cls-10" x1="67.54" y1="130.85" x2="77.74" y2="131.72"></line><line class="cls-10" x1="68.32" y1="149.89" x2="78.41" y2="148.19"></line><line class="cls-10" x1="73.81" y1="168.13" x2="83.16" y2="163.98"></line><line class="cls-10" x1="217.61" y1="153.18" x2="207.61" y2="151.05"></line><line class="cls-10" x1="219.23" y1="134.2" x2="209.01" y2="134.62"></line><line class="cls-10" x1="216.07" y1="115.41" x2="206.27" y2="118.36"></line><text class="cls-11" transform="translate(107.82 160.83)">guarantee</text></svg>