<svg xmlns="http://www.w3.org/2000/svg" id="Layer_1" data-name="Layer 1" viewBox="0 0 288 288"><path d="M124.9,243.46a2.32,2.32,0,0,1,2.91-1.34c10,1.69,19.93,1.38,29.94.23A81.82,81.82,0,0,0,181.26,236c27.52-12,46.55-32.08,56.47-60.58a111.12,111.12,0,0,0,3.38-12.82c1.1,4.46,4.08,4.25,7.11,3.73,1.86-.31,2.16.35,1.75,2a109.14,109.14,0,0,1-32.3,55.69,106.65,106.65,0,0,1-38,23,109.35,109.35,0,0,1-32.23,6,108.85,108.85,0,0,1-95.7-49.9,117.41,117.41,0,0,1-9.19-17.44c-.71-1.68-.37-2.22,1.36-2.29a23.13,23.13,0,0,0,6.33-1.28c1.15-.39,1.63-.08,2,1a54.43,54.43,0,0,0,4.46,9.66A113.55,113.55,0,0,0,63.5,203a102.7,102.7,0,0,0,15.34,16.39,98.06,98.06,0,0,0,40.52,21c1.42.35,2.74,1.1,4.26,1.07C124.76,241.45,124.5,242.44,124.9,243.46Z"></path><path d="M91.68,48.55c.34.39.48,1.44,1.53,1.22.25-.05.65-.3.66-.47,0-.88-1-.73-1.46-1.51a51.14,51.14,0,0,1,9.87-4.8,108,108,0,0,1,49.6-7.72A68.72,68.72,0,0,1,162,36.54c7.83,1.83,15.6,3.64,23.15,6.73a109.09,109.09,0,0,1,41.59,30.18,102.5,102.5,0,0,1,14.48,21.89c1.2,2.43,2.23,5,3.38,7.41.47,1,.31,1.51-.89,1.53-.59,0-1.18.14-1.78.19-3.76.31-4.43.87-5.33,4.74-1.89-4.55-3.83-8.83-6-13a94.36,94.36,0,0,0-11.76-16.87,99.14,99.14,0,0,0-72.59-34.6,4.35,4.35,0,0,1-2.68-.58c-.3-.22-1.74-1.28-2.35.35-.1.26-1.1.23-1.68.26a102.86,102.86,0,0,0-22,3.36,98,98,0,0,0-27.68,12.4A112.78,112.78,0,0,0,73,74.14c-8.74,8.48-15.74,20-19.39,27.6-.41.85-.33,2.33-2,2.16-.07,0-.26.27-.22.32,1.45,2.68-1.09.86-1.44,1.2-.6,1.3,1.55,1.51.78,2.78-.63,1.06-1-.69-1.72.07,2.32,2-.07,3.81-.35,5.71a82.26,82.26,0,0,1-2.51,9.41c-.68-.65-2.1-.26-1.8-1.81a.26.26,0,0,0-.44-.23c-2.38,1.89-4.76-.74-7.32.43a109.83,109.83,0,0,1,8.19-24.45,107.05,107.05,0,0,1,30.7-38.62c4.21-3.31,8.45-6.66,13.28-9.07.53-.26,1-1.32,2-.17C91.36,50,90.61,48.61,91.68,48.55Z"></path><path d="M44.86,150.09c4.67.93,6.38,3.72,7.08,7.47a85.76,85.76,0,0,1,1,14.4c0,.55.55,2.28-1.37,1.75-.46-.13-.26.37-.2.61.51,2.23-.22,3.52-2.55,4.32a28.31,28.31,0,0,1-6.58,1.17c-4.15.37-8.31.69-12.45,1.11-1.27.13-1.73-.27-1.77-1.53-.09-3.48-.37-7-.63-10.41-.31-4.08-.9-8.19-1.27-12.29-.84-9.26-1.57-18.52-2.35-27.78-.13-1.55.09-2.61,2.1-2.67,4.61-.14,9.18-1,13.81-.74s7.53,2.45,8.92,7A33.69,33.69,0,0,1,49.91,144C49.77,146.91,47.89,148.63,44.86,150.09Zm-7.45,9.17h0c.29,3.26.56,6.52.89,9.78.06.58-.28,1.48.69,1.64a2.47,2.47,0,0,0,2-.74,3.63,3.63,0,0,0,.83-3.13c-.15-2.22-.37-4.45-.59-6.67a23,23,0,0,0-.49-3.08c-.36-1.48-1.57-1.74-2.81-1.54-1.51.25-.53,1.42-.62,2.17A8.25,8.25,0,0,0,37.41,159.26Zm-1.75-20.85h0c.17,2.28.31,4.57.53,6.86.07.65-.13,1.66,1,1.67s2.18-.18,2.35-1.27a19.52,19.52,0,0,0-.84-9.82c-.4-1.09-1.48-1.19-2.46-1-1.28.25-.57,1.29-.62,2A11.42,11.42,0,0,0,35.66,138.41Z"></path><path d="M187.33,139.1c4.12,1.28,5.69,4.19,6,8,.55,6.15,1.06,12.31,1.65,18.46.11,1.18-.21,1.57-1.4,1.63-2.38.11-4.75.32-7.12.61-1.1.13-1.66-.06-1.72-1.29-.27-5-1-9.89-1.07-14.88a41,41,0,0,0-1-6.26,2,2,0,0,0-2.44-1.77c-1.46.18-.76,1.43-.7,2.16.5,6.67,1,13.35,1.69,20,.19,1.9-.2,2.71-2.23,2.71-2.3,0-4.61.26-6.9.5-1.29.13-1.84-.19-2-1.62q-2-25.47-4.18-50.95c-.08-.88-.33-1.82,1.08-1.91,4.89-.29,9.78-.69,14.67-.91a7.42,7.42,0,0,1,6.68,2.86c.47.6,1,1,.55,1.91-.23.48-.26,1.18.82,1,.63-.13.68.72.79,1.16a40.43,40.43,0,0,1,1.32,12.82A5.94,5.94,0,0,1,187.33,139.1Zm-5.6-8h.06a13.3,13.3,0,0,0-.11-1.55c-.3-1.67-.08-3.41-.69-5a2.19,2.19,0,0,0-2.61-1.56c-1.2.24-.62,1.34-.58,2,.15,2.73.39,5.46.69,8.17.08.72-.38,2,1.18,1.86a2,2,0,0,0,2-1.93A14.65,14.65,0,0,0,181.73,131.1Z"></path><path d="M211.57,125.54c.1-2.62-.19-4.63.21-6.62,1.33-6.67,6.06-10.39,13.08-10.32,6.62.08,11.12,4.1,12.26,11.22.58,3.66.88,7.38,1.28,11.07.07.61.38,1.4-.72,1.5-2.74.24-5.49.45-8.23.78-1.51.18-2.06-.26-2.16-1.86-.22-3.7-.64-7.39-1-11.07-.13-1.19-.33-2.53-2-2.43s-1.85,1.46-1.83,2.78c.09,7.08,1.08,14.09,1.59,21.14.28,3.86.7,7.71,1.1,11.56.15,1.41.33,3.2,2.25,2.92,1.68-.24,2.24-1.48,1.87-3.42-.56-2.9-.59-5.91-.88-8.87-.1-1,0-1.69,1.32-1.75,2.75-.14,5.49-.38,8.24-.61.85-.08,1.42,0,1.47,1.08.19,4.16.82,8.3.15,12.47a12.09,12.09,0,0,1-10.8,10.24c-8,.8-12.87-2.73-14.28-10.67C212.7,144.84,212.45,134.85,211.57,125.54Z"></path><path d="M100.51,133.62c.84,2.88-.8,3.35-3.09,3.19l-.22,0c-2,.13-4.38,1-5.91.22-1.73-.89-.73-3.62-1.18-5.5-.25-1.07-.36-2.42-1.88-2.35s-1.66,1.39-1.8,2.61c-.53,4.57,1.58,7.61,5.47,9.74a28.38,28.38,0,0,1,8.71,7.3c1.9,2.41,2.4,5.42,2.84,8.36.68,4.4,1.06,8.85-.51,13.13-1.2,3.27-4,4.87-7.17,5.82-9,2.71-16.21-2.52-16.48-11.88a39.68,39.68,0,0,0-.74-5.15c-.22-1.33.1-2.09,1.65-2.15,2.23-.08,4.46-.28,6.68-.54,1.36-.16,1.85.33,1.9,1.67.1,2.3.38,4.59.53,6.89.09,1.42.57,2.55,2.15,2.56s1.85-1.26,2-2.5c.31-2.68-.61-5.25-.8-7.89-.05-.62-.53-.35-.76-.56-3.08-2.82-6.68-5-9.9-7.61-4.62-3.79-6-8.8-5.32-14.52a20.73,20.73,0,0,0-.4-3.94c-.33-4,3-8.31,6.66-9.63a15.89,15.89,0,0,1,9.23-.55c5.25,1.25,7.59,4.47,8.26,11.26C100.48,132.28,100.48,133,100.51,133.62Z"></path><path d="M151.57,115.78c7.57-.07,10.38,2.24,11.54,9a103.65,103.65,0,0,1,1.18,13.51c.25,6.57-2.41,9.35-9,10-3,.29-2.94.29-2.7,3.16.49,5.62.9,11.25,1.44,16.87.17,1.69-.22,2.42-2.05,2.44-2.45,0-4.9.29-7.35.53-1.15.11-1.58-.3-1.67-1.45-.72-9-1.49-17.9-2.23-26.85-.66-8-1.28-16.07-2-24.1-.14-1.51.15-2.13,1.78-2.21C144.46,116.43,148.39,116,151.57,115.78Zm-1.09,11.79c.32,3.38.62,6.66,1,9.93.06.63-.11,1.45.85,1.55a2,2,0,0,0,2.12-.93,3.19,3.19,0,0,0,.45-1.7,52.74,52.74,0,0,0-.72-9c-.34-1.52-1.15-2.45-2.76-2.21S150.92,126.86,150.48,127.57Z"></path><path d="M36.52,184.36c2.16-.91,3.26-.36,4.1,1.81a98.44,98.44,0,0,0,10.28,19.5,110.43,110.43,0,0,0,45.59,39.17c21.81,10.23,43.63,12.27,64.76,9a107.1,107.1,0,0,0,21.69-5.81,111.4,111.4,0,0,0,64.6-64.68,104.74,104.74,0,0,0,3.71-11.84c.37-1.38.47-2.9,2.69-3.05-.81-.57-2.05,0-1.63-1.49s1.6-1.06,2.52-1.18c1.19-.15.85.7.73,1.32a96.26,96.26,0,0,1-8.7,25.68c-.63,1.23-.94,2.57-1.64,3.74-.84,1.4-1.54,2.89-2.37,4.29a115.23,115.23,0,0,1-13.4,18.75c-18.23,20.21-40.58,33-67.56,37.3q-39.61,6.34-74.68-13.25A110.7,110.7,0,0,1,56.3,218.06,113.48,113.48,0,0,1,44.22,201C41.22,195.64,38.29,190.26,36.52,184.36Z"></path><path d="M125.71,32.76c.15,1.2-.32,1.59-1.42,1.78A109.92,109.92,0,0,0,90.74,46.08a103.66,103.66,0,0,0-12.57,8A111.46,111.46,0,0,0,34.86,120.1c-.18.79-.17,1.58-1.28,1.8-2,.38-2.26.08-1.88-1.85a103,103,0,0,1,7.6-23.26A113.15,113.15,0,0,1,67.9,58.17,111.8,111.8,0,0,1,92.43,41.66c1.58-.77,1.18.6,2,1.42-.68-2,.36-2.62,1.51-3.14a114.17,114.17,0,0,1,27.12-8.47c3-.54,6.12-.91,9.19-1.23.56,0,1.9-1.19,1.86.71,0,.06.23.2.3.17,5.59-2.5,11.44-1.37,17.21-1.18a78.42,78.42,0,0,1,11.52,1.39c.15,0,.38,0,.43.08,1.12,1.95,3,.61,4.43.92a106.78,106.78,0,0,1,33.05,12.9,111.81,111.81,0,0,1,12.21,8.1,121.13,121.13,0,0,1,11.31,10A113.61,113.61,0,0,1,250,102.15c.17.41.27.85.42,1.33-1.86.59-3.09.76-4.08-1.63C235.28,75.43,216.73,56,191,43.48a103.54,103.54,0,0,0-27.38-8.91,108.69,108.69,0,0,0-34.39-.77C126.8,34.15,126.8,34.15,125.71,32.76Z"></path><path d="M53.88,129c-.44-1.16.3-2.73-.12-4.26-.28-1,.58-.85,1.09-.89,5.11-.45,10.23-.83,15.34-1.34,1.41-.14,1.83.38,1.9,1.67.16,2.52.36,5,.64,7.56.13,1.19-.37,1.6-1.46,1.66-1.33.07-2.67.23-4,.29s-1.9.48-1.74,1.9c.27,2.44.41,4.9.56,7.35.07,1.06.58,1.38,1.6,1.3,1.81-.15,4.15-1.2,5.29.12,1,1.11.57,3.41.7,5.19.33,4.37.32,4.49-4.09,4.82-1.94.15-2.59.7-2.3,2.69.16,1,.89,2.42-.56,3.29,1.84,1.62.68,4,1.52,5.88.32.72,1,.43,1.59.4,1.63-.1,3.27-.22,4.89-.41,1.16-.14,1.61.35,1.7,1.46q.31,4,.73,8c.1,1-.29,1.28-1.23,1.35-5.34.42-10.67.88-16,1.35-1.13.09-1.7.1-1.87-1.52-.9-8.13-1.49-16.29-2.14-24.44C55.3,144.71,54.58,137,53.88,129Z"></path><path d="M247.27,162.71c-1.8.59-2.26-.6-2.39-2.47-.38-5.49-1.17-11-1.25-16.47-.08-6.25-1.31-12.38-1.43-18.65a143.83,143.83,0,0,0-1.44-14.71c-.19-1.56.15-2.21,1.94-2.31,4.83-.25,9.64-.73,14.46-1.21,1.38-.14,2,.11,2,1.66a69.52,69.52,0,0,0,.68,7.34c.2,1.44-.38,1.87-1.66,1.89s-2.37.08-3.56.12-2.24.36-2,2.1c.34,2.37.44,4.77.59,7.16.07,1.15.54,1.56,1.7,1.41,1.69-.21,3.72-1,5-.07s.34,3.05.6,4.63c.83,5,.83,5.14-4.17,5.62-1.8.18-2.2.76-1.95,2.49.38,2.72.51,5.48.67,8.23.07,1.23.55,1.72,1.81,1.56,1.62-.2,3.26-.28,4.89-.46,1.18-.14,1.74.18,1.79,1.52.12,2.6.38,5.2.68,7.78.12,1.08-.21,1.43-1.28,1.51C257.89,161.77,252.78,162.24,247.27,162.71Z"></path><path d="M87.22,180a10.37,10.37,0,0,0,5.22.48c1.78-.36,2.71.47,3.69,1.67a61.57,61.57,0,0,0,31.49,20.65,56.09,56.09,0,0,0,23.32,1.51c20.73-2.74,36-13.57,46.19-31.74.92-1.65,1.82-2.5,3.69-2.27,1.3.15,3.23-.83,3.74.12s-.8,2.54-1.46,3.76c-12.26,22.64-31.2,35.12-56.92,36.46-19,1-35.41-5.52-49.16-18.76A69.86,69.86,0,0,1,87.22,180Z"></path><path d="M82.14,117.06c12-23.87,30.6-37.56,56.78-39.63,26.52-2.09,49.42,12.06,60.54,30.39-2,.27-3.92.56-5.85.79-.82.1-1.12-.65-1.5-1.16a58.67,58.67,0,0,0-18.69-16.32c-1.29-.71-1.3-1.6-1.3-2.93-.44,1.63-1.05,1.53-2.29.94a59.2,59.2,0,0,0-24.07-5.94q-26.26-.69-45.14,17.66a58.14,58.14,0,0,0-10.27,13.65,2.76,2.76,0,0,1-3,1.72C85.82,116.09,84.33,116.67,82.14,117.06Z"></path><path d="M106.42,130.46c-3.51.17-3.49.17-3.7-3.14-.12-2-.29-4-.49-6-.09-1,.19-1.47,1.3-1.56Q114,119,124.41,118c1.34-.12,2,.08,2.1,1.66.08,2.53.38,5,.65,7.56.1,1-.1,1.61-1.24,1.55a.55.55,0,0,0-.22,0c-1.61.49-4-.42-4.77,1s0,3.3.15,5c1,11.93,2,23.86,3,35.79.17,1.91-.28,2.68-2.27,2.71a70.46,70.46,0,0,0-7.1.55c-1.2.14-1.57-.3-1.66-1.42-.56-7.11-1.35-14.21-1.72-21.32-.33-6.34-1.35-12.6-1.55-18.94C109.73,129,107.51,130.88,106.42,130.46Z"></path><path d="M200.17,111.8a18.15,18.15,0,0,0,2.66,0c3.25-.49,3.21-.51,3.47,2.58q2,23.88,4,47.77c.3,3.59.33,3.6-3.16,3.94-1.92.19-3.87.22-5.77.52-1.54.24-1.94-.42-2-1.76q-.9-11.57-1.88-23.12c-.74-8.87-1.47-17.74-2.24-26.6-.27-3-.33-3,2.74-3.27.74-.06,1.48-.09,2.23-.13Z"></path><path d="M117.94,72.52c-.06-1-1-2.17.61-2.86.17-.08.2-.7.13-1-.54-2.32-1.13-4.62-1.68-6.94a1.2,1.2,0,0,0-1-1c-1.24-.35-1.2-1.55-1.26-2.54s1-.92,1.61-1.08c2-.48,4.06-.94,6.1-1.33,1.75-.33,3.5-.27,4.65,1.35a5,5,0,0,1,.38,5.1c-.74,1.76,2.13,5.74,3.93,5.18a3,3,0,0,0,2.16-2.61c.33-3.25.93-6.48,1.47-9.7.14-.85.18-2,1.48-1.8s3-.86,3.85,1.18c1.35,3.3,2.77,6.57,4.19,9.85a2.75,2.75,0,0,0,3,1.86c1-.07,1.06-.51,1.12-1.21.17-2.07.36-4.14.52-6.22a1.74,1.74,0,0,0-.7-1.9c-1.18-.85-.54-2.21-.28-3.28s1.26-.35,1.93-.39A3.55,3.55,0,0,1,154,55.61a41.09,41.09,0,0,0,3.35,6.13c0-1.74,1.75-3.73-.94-5.05-.55-.28-.26-1.41-.08-2.12s.95-.55,1.48-.51c1.34.1,2.67.27,4,.45.61.09,1.55-.17,1.53.83,0,.8.35,2-.82,2.25s-1.08,1.28-1.17,2.09c-.34,3-.58,5.92-.92,8.88-.08.71.37,1.88-.89,1.94s-2.58.28-3.23-1.3c-.85-2.06-1.78-4.08-2.7-6.12a7.65,7.65,0,0,0-.8-1c.19,1.93-1.5,3.63.92,4.8.53.25.32,1.25.14,1.89-.23.8-.92.62-1.49.6-3.4-.16-6.79-.64-10.22-.09-2,.31-3-1.35-1.83-3,.63-.92.38-1.51-.24-1.79a2.51,2.51,0,0,0-2.74.16c-.66.65-.09,1.16.74,1.59s.73,1.58.67,2.42-1,.62-1.61.7A63.4,63.4,0,0,0,127.25,71c-1.91.54-2.83-.34-2.17-2.18s-.89-2.41-1.69-3.36c-.34-.41-1.1,0-1.35.42-.53.86.07,1.71.28,2.55.14.56.75.41,1,.71,1.09,1.12.74,2.6-.76,2.86s-3,1.37-4.71.47Zm4-13.13c-.63.1-1.57,0-1.39,1.13.12.68-.18,1.84,1.09,1.74a1.76,1.76,0,0,0,1.79-1.64C123.5,59.66,122.87,59.36,121.94,59.39Z"></path><path d="M160.27,227.56c.11,1.72-.64,3.65,1.88,4.18,1,.22.67,2.38-.57,2.8a34.3,34.3,0,0,1-4.11,1c-1.07.21-2.45-1.63-1.71-2.16,1.71-1.23.85-2.66.66-4a43.37,43.37,0,0,0-1.22-4.67c-.15-.58-.54-.71-1.09-.89-1.29-.45-1.24-1.74-1.27-2.8s1-1,1.77-1.28a3.48,3.48,0,0,1,4.15,1.1,38.27,38.27,0,0,0,5,4.41c-.61-1.4,1-3.85-2.16-4-.94,0-.81-1.3-1-2-.29-.91.57-1,1.06-1,6.11-.49,11.06-4,16.5-6.28,1.63-.68,2.42-.45,3,1.19a11.26,11.26,0,0,0,1,2.66c.32.49,1,1.33-.12,1.86-.89.42-1.79.91-2.49-.31-.4-.69-.75-1.67-1.81-.94s-.09,1.37.15,2c.66,1.58,1.43,3.11,2.15,4.66.5,1.07.76,2.22,2.54,1.48.89-.37,1.27.93,1.64,1.71s-.06,1.09-.68,1.34c-2.19.91-4.4,1.8-6.57,2.76-.87.38-1.41.29-1.68-.66-.23-.8-.95-1.7.4-2.2s1.37-1.31.81-2.45c-.88-1.8-1.66-3.65-2.49-5.48-.27-.6-.47-1.29-1.43-1a1,1,0,0,0-.63,1.57c.79,1.43.06,1.9-1.15,2.4-1.42.59-1.59-.39-2-1.27-.28-.6-.33-1.6-1.48-1.14-.89.35-.7,1-.53,1.65s.88,1.7-.87,1.16c-.42-.13-.08.88.15.93,2.07.45,1.75,2.29,2.18,3.66a24.12,24.12,0,0,1,.72,3.27c.15.85,1,2-.37,2.47-1.21.45-2.46,1-3.61-.47C163.53,231,161.85,229.29,160.27,227.56Z"></path><path d="M82.6,178.47a6.43,6.43,0,0,1,4,3,66,66,0,0,0,27.56,24A66.76,66.76,0,0,0,167,207.94c13.65-4.93,24.43-13.63,32.77-25.44a63.75,63.75,0,0,0,6.08-11.08c.5-1.14,1-2,2.45-1.48-6,17.24-25,39.57-55.76,43.56A69.8,69.8,0,0,1,82.6,178.47Z"></path><path d="M78.2,119.09C86.82,95,109.78,77,136.39,74.33a65.14,65.14,0,0,1,19.74.79,73.36,73.36,0,0,1,18.72,6.24,70.89,70.89,0,0,1,16.26,11.25,69.88,69.88,0,0,1,12.09,14.85c-1.36.63-2.1.19-2.83-.92a66.73,66.73,0,0,0-32.07-26c-17.59-6.84-35.09-6.16-52.48,1.08A53.28,53.28,0,0,0,104.26,88c-7.82,5.9-14.7,12.91-19.57,21.62a49.71,49.71,0,0,0-3.57,7.06C80.65,118,79.51,118.33,78.2,119.09Z"></path><path d="M84.72,209.91c-.52-.95-1.58-1.46-.57-2.61s1.53-1.27,2.58-.17c4.91,5.14,4.73,2.91.63,8.62-.38.53-.71,1.62-1.59,1.2s-2.25-1-2.15-2c.14-1.26-.49-1.11-1.17-1.26a7.09,7.09,0,0,1-5.18-9.26c1.65-5,7.81-9.13,12.74-5.23a4.46,4.46,0,0,1,1.41,1.63c.38.85.61,1.49,1.87,1.28s1.57,1.17,2.12,2-.34,1.15-.76,1.62a6.41,6.41,0,0,1-1.13,1.08c-.67.45-1.1,1.88-2,1.17s-2.78-.95-2.26-3c.36-1.44-.64-2.44-2-2.74a4.33,4.33,0,0,0-4.43,1.92c-1.14,1.43-1.71,3-.84,4.75A2,2,0,0,0,84.72,209.91Z"></path><path d="M85.15,92.3c-.25-.51-.6-.88-.57-1.21.1-1.16,1.15-3.1-1.47-1.25-.73.52-1.29-.73-1.88-1.24s0-.9.33-1.2c1.21-1.2,2.46-2.35,3.69-3.52.7-.66,1.36-.41,2,.11,1.09.9,2.19,1.78,3.21,2.76.43.41,1.39.84,1,1.5-.5.84-.9,2.37-2,2.16-1.41-.27-1,.61-1.22,1.19a7.2,7.2,0,0,1-10.39,4.31c-4.67-2.53-6.59-7.33-4.59-11.36,1.22-2.45,3.83-3.67,5.21-6,.65-1.08,1.59-.77,2.3.21.39.54.92,1,1.3,1.53s1.56,1.12.75,2-1,2.52-3,2-3.31,1.41-2.91,3.37a5.66,5.66,0,0,0,5.17,4.45Z"></path><path d="M136.07,223.78a6.47,6.47,0,0,1-1.23,3.33c-.5.64-1.81.81-1.39,2,.46,1.38.29,3.17,1.58,4s.81,1.7.62,2.5c-.31,1.31-1.33.41-2,.35-1-.09-2-.3-3-.49-1.79-.33-2.2-1.52-.9-2.92s.14-2.57-.48-3.62a1,1,0,0,0-1.74.48c-.22.88-.64,1.84.23,2.71.73.72.2,1.58,0,2.29-.33.94-1.15.3-1.73.24-1-.1-1.9-.37-2.85-.49-.76-.09-1.33-.31-1.24-1.19.07-.68-.31-1.62.75-1.82.69-.14,1-.4,1.15-1.1.37-2.42.77-4.82,1.16-7.23.11-.63-.29-.85-.73-1.19-1.1-.86-.27-1.91,0-2.82s1.12-.43,1.68-.33c2.41.43,4.83.83,7.19,1.44A3.78,3.78,0,0,1,136.07,223.78Zm-4.73.32c0-1.08-.83-1.3-1.62-1.47-1.32-.29-1.11.81-1.32,1.53s.08,1.29.94,1.29S131.12,225.23,131.34,224.1Z"></path><path d="M95,84.9a5.29,5.29,0,0,1-4.39-2.25c-1.09-1.4-2.06-2.91-3.13-4.33-.56-.75-.8-1.93-2.36-1.27-.79.34-1.2-.89-1.66-1.52s.22-1,.64-1.36c1.05-.83,2.1-1.67,3.2-2.41.49-.34.94-1.28,1.65-.66s1.63,1.66,1.44,2.08c-.82,1.94.74,2.8,1.46,4a14.88,14.88,0,0,0,1.69,2.33c.63.71,1.35,1.52,2.44.64s1.64-1.67.76-2.84c-1.08-1.46-1.38-3.38-3-4.57-.47-.35-.64-.82-1.4-.63-1.28.31-1.49-1-2-1.67-.7-1,.61-.87.89-1.34a7,7,0,0,1,2.55-2.07c.56-.35,1.16-1.36,1.87-.58s1.84,1.26,1.14,2.56c-.49.89.25,1.37.61,2,1.26,2.08,3.07,3.86,3.75,6.26C102.31,81,99.1,84.86,95,84.9Z"></path><path d="M92.33,218.94c0-3.25,2.08-5.19,3-7.6.36-.94,1.43-1.67.24-2.92-.67-.7.35-1.63.82-2.32s1,0,1.5.24c1.14.55,2.24,1.17,3.34,1.78,1.48.83,1.67,2.87.13,3.29-2.15.58-2.38,2.36-3.33,3.71a15.38,15.38,0,0,0-1.19,2.14,1.61,1.61,0,0,0,.73,2.43c1,.5,1.91.61,2.55-.41a35.11,35.11,0,0,0,3-5.22c.39-1-.65-2.24.41-3.37.58-.61,1-.79,1.67-.37,1,.59,2,1.12,3,1.77.57.38,1.78.61,1.43,1.38s-.28,2.4-1.94,2.31c-.86-.05-1,.76-1.36,1.3-1,1.58-1.88,3.2-2.85,4.78a5.39,5.39,0,0,1-6.37,2.38C94.31,223.47,92.27,221,92.33,218.94Z"></path><path d="M190,67.85c-1.67.33-2.74-2.17-3.85.17-.32.69-.51,1.31.33,1.68,1.34.58.83,1.4.46,2.34s-1,1.09-1.89.6c-1.29-.73-1.47.44-1.9,1.14-.3.49-.78,1,.06,1.47s1.65,1.32,2.52.17c.73-1,1.37-1,2.4-.35,1.32.85,1.63,1.54.71,3-2,3.11-1.89,3.17-5.06,1.5-2-1.07-4.06-2.18-6.11-3.22-.92-.47-1.48-1.16-1.13-2.13.25-.69.3-1.84,1.71-1.49.89.21,1.17-.7,1.49-1.34.72-1.39,1.46-2.76,2.11-4.17.47-1,1.74-1.87.19-3.21-.54-.47.35-1.8.86-2.58s1.07-.07,1.57.18c2.72,1.38,5.41,2.8,8.14,4.14,1,.5,1.31,1.09.73,2.09A21.23,21.23,0,0,0,192.16,70c-.81,1.81-1.82.54-2.69.15C188,69.49,189,68.79,190,67.85Z"></path><path d="M189.91,79.26a3.11,3.11,0,0,0,.57.25c1.44,0,5.81-6.23,5.29-7.59s.52-1.94,1.07-2.7,1.19.06,1.65.4c2.35,1.71,4.6,3.56,7,5.17,1.58,1.06,1.1,2,.19,3s-1.44,3.14-3.47,1.22c-.65-.6-1-1-.38-1.83.71-1-.35-1.09-.9-1.49-.77-.57-1.32-.58-1.8.28-.33.61-1.12,1.25-.1,1.86,1.47.89.33,1.73,0,2.52-.55,1.24-1.31.48-2,.06-1.1-.7-1.41.28-1.88.87s-.94,1.13,0,1.65c.69.41,1.28,1.47,2.29.51.69-.65,1.28-1,2.24-.15,1.28,1.17,1.69,2.14.2,3.38a5.47,5.47,0,0,0-1,1.16c-.85,1.35-1.68,1.23-2.84.27-2.28-1.9-4.7-3.65-7-5.5-.45-.36-1.44-.59-.87-1.47S189.06,79.38,189.91,79.26Z"></path><path d="M183.56,213.41c-1.13.09-1.41-1.1-2-1.83-.72-1,.33-1.27.87-1.64,2.33-1.58,4.79-3,7-4.69,1.72-1.32,2.39-.37,3.2.95s1.91,2.67-.4,3.69c-.57.25-1,.55-1.52-.11-.9-1.2-1.54,0-2.19.32-.81.43-.26,1,0,1.51.43.71.93,1.46,1.9.64s1.41,0,1.92.62.92,1.39-.12,2-1,1.38-.26,2.19c.4.46.61,1.41,1.5.84s1.88-.87,1.31-2.19c-.67-1.53.47-1.92,1.49-2.41,1.22-.58,1.67.15,2.21,1.07,1.86,3.21,1.9,3.21-1.23,5.28-1.92,1.26-3.86,2.5-5.85,3.65-.55.32-1.08,1.43-1.83.61-.57-.61-1.29-2-1-2.3,1.25-1.5-.2-2.32-.66-3.27a40.62,40.62,0,0,0-2.69-4.34C184.93,213.53,184.68,212.65,183.56,213.41Z"></path><path d="M201.57,212.6a1.59,1.59,0,0,0-.47-2c-1.12-1.39-2.21-2.81-3.42-4.11-.66-.7-1.09-2-2.67-1-.79.48-1.58-.87-2.19-1.56s.29-1.17.69-1.56c2.15-2.06,4.41-4,6.51-6.1,1-1,1.72-.81,2.51.15.42.52.9,1,1.32,1.51s1.16,1,.37,1.67-1.11,2.07-2.44,1.18-1.57.29-2.18.79-.32.93.13,1.32c.66.59,1.25,1.31,2.21.32s1.53.09,2.16.62c.8.66.54,1.25-.1,1.84s-1,1.36,0,2c.54.32.8,1.54,1.75.71.68-.59,1.76-1.16,1-2.34-1.16-1.75.46-2.13,1.35-2.86,1.32-1.09,1.65.36,2.15,1,2.33,2.83,2.31,2.86-.36,5.28-1.59,1.44-3.17,2.92-4.84,4.27-.61.5-1,1.79-2,1.21S201.34,213.39,201.57,212.6Z"></path><path d="M165.67,68.67c1.53.46,2-.06,2.3-1.12.51-2,1.13-4,1.67-6,.17-.61.48-1.33-.51-1.64s-1.23.22-1.42.94c-.32,1.15-.88,1.54-2.11,1s-1.42-1.16-1.06-2.39c1.25-4.37,1.19-4.33,5.41-3.07,2.76.83,5.58,1.48,8.37,2.23.9.25,1.61.43.88,1.8-.62,1.17-.51,2.69-1,4-.28.67-.41,1.25-1.37.82-.76-.34-1.85-.2-1.63-1.59.11-.69.9-1.72-.44-2s-1.21,1-1.43,1.75c-.48,1.64-.87,3.3-1.33,5-.3,1.1-.69,2.08,1,2.54,1.44.39.37,1.46.3,2.22-.1,1.17-.86.93-1.62.69-2.05-.64-4.13-1.21-6.17-1.9-.66-.22-1.8-.19-1.31-1.51C164.47,69.49,164.44,68.17,165.67,68.67Z"></path><path d="M141.69,236.48c-2.92.22-3.42-.1-3.21-2,0-.21,0-.55.12-.63,2.82-2,1.65-5.26,2.64-7.83a18.94,18.94,0,0,0,.59-2.83c.67-3.05.67-3,3.71-2.85a1.84,1.84,0,0,1,1.93,1.4c1.08,3.05,2.43,6,3.34,9.11.39,1.33,1.78,1.87,1.93,3.23a10.34,10.34,0,0,1,.3,1.51c0,.69-.68.76-1.18.71-1.71-.17-3.6.9-5.09-.39a1.89,1.89,0,0,1,0-2.47c1-.85.65-1.58-.11-1.87a2.41,2.41,0,0,0-2.86.3c-.2.23-.39.85,0,1,1.68.41,1.6,1.76,1.27,2.81-.4,1.27-1.8.55-2.74.8A2.94,2.94,0,0,1,141.69,236.48Z"></path><path d="M118.34,224c.12,1.59-.74,4,.4,5.77.85,1.33.11,2-.08,3-.07.42-.46.56-.87.43a20.34,20.34,0,0,1-4.6-1.6c-1.6-1-.27-2.47.49-3s.88-1.29.51-1.78a3.19,3.19,0,0,0-2.44-1.19c-.46,0-1.33.86-.55,1.46,1.34,1,.52,2.1.09,2.94-.61,1.14-1.55,0-2.33-.07a9.54,9.54,0,0,1-2.34-.69c-.61-.26-1.79-.24-1.47-1.25.25-.79,0-2.12,1.34-2.26,1.19-.12,1.48-1.12,2-1.9,1.58-2.51,3.12-5.05,4.66-7.58.53-.86,1.07-1.71,2.27-1.08s2.93.57,2.94,2.53S118.34,221.49,118.34,224Zm-3.27.83a32.41,32.41,0,0,1-.22-4.15C111.47,222.52,114.47,223.51,115.07,224.79Z"></path><path d="M117.89,72.45c-.47.91-4.7,3.67-5.36,3.3-1-.56-1.91-1.53-1.32-2.82a1,1,0,0,0-.85-1.58,2.61,2.61,0,0,0-2.6,1.3c-.32.8.38,1,1.18,1.08,1.17.12,1.38,1.3,1.61,2.16s-.82.86-1.34,1.18A12.82,12.82,0,0,1,107,78.19c-.7.26-1.73,1.33-2.06.58s-2.23-1.75-.6-3.14c.46-.39.13-1.11,0-1.7-.69-3.19-1.33-6.39-2-9.59-.22-1-.22-2,1.06-2.26s2.39-1.7,3.8-.11c2.31,2.58,4.75,5,7.12,7.58,1.08,1.14,3.12,1.1,3.59,3Zm-12.18-6.21c.45,1.2.65,1.9,1,2.55.48,1,2.19.34,1.9-.79S106.82,67.14,105.71,66.24Z"></path><path d="M72.17,189.11a3.34,3.34,0,0,0,2,4c-2,.07-3.22.83-3.23,3.3-1-1.7-1.77-3.07-4.22-2.54,1.55-1.54,2.29-2.82,1-4.5C69.33,190.17,70.73,190.75,72.17,189.11Z"></path><path d="M63.31,105c1.59-1.19,1.77-2.58.71-4.65,1.9,1.3,3.29,1.41,5-.54-.72,2.44,0,3.72,2.27,4.8-2.73-.21-3.83.69-3.93,3.17C66.36,105.85,65.54,104.43,63.31,105Z"></path><path d="M209.94,192.77c1.75-1.22,1.85-2.65.64-4.8,2.07,1.36,3.62,1.75,5-.26-.46,1.94-.37,3.43,2.16,4.27-2.14.41-3.7.82-3.63,3.67C213.05,193.42,212.1,192.18,209.94,192.77Z"></path><path d="M207.28,91.29c1.79,1.08,3.16,1,4.61-.83-.08,2-.7,3.75,1.77,4.36-2,.33-3.42.91-3.15,3.72-1.15-1.91-1.65-3.81-4-2.8C207.5,94.29,208.88,93.15,207.28,91.29Z"></path></svg>