<svg xmlns="http://www.w3.org/2000/svg" id="Layer_1" data-name="Layer 1" viewBox="0 0 288 288"><path d="M240.55,234.12v6.41H52.27c-4.89,0-4.84,0-4.82-4.91,0-1.28.44-1.55,1.62-1.53,5.21,0,10.43-.05,15.64.06,1.66,0,2.08-.39,2.07-2.06-.08-13.07-.06-26.14,0-39.2a46.54,46.54,0,0,1,6.3-24.3c9.72-16.25,24.13-24.46,43.1-24.59a3.32,3.32,0,0,0,2.25-.4,14.69,14.69,0,0,1-1.33-1,37.7,37.7,0,0,1-10.41-18c-.77-3-.77-3-4-3.23A14.46,14.46,0,0,1,92.05,98.53a27.8,27.8,0,0,0,4.27-9.93c.05-.25.12-.49.16-.74A48.11,48.11,0,0,1,132.15,49c2.43-.59,4.89-1,7.34-1.52h9c3.34.81,6.78,1.14,10.06,2.24,19.48,6.52,32.31,23.12,33.58,43.58A3.39,3.39,0,0,0,193.54,96a14.19,14.19,0,0,1,.93,21.15c-1.74,1.66-2.54,3.23-2.2,5.5a4.68,4.68,0,0,1,0,.75c0,10.75-6.73,17.55-17.54,17.45-2.53,0-3.52,1.5-5.1,3.26,2.23,0,4.06-.1,5.87,0A47.06,47.06,0,0,1,204.74,156c11.28,10,16.58,22.71,16.56,37.72,0,12.88,0,25.76,0,38.64,0,1.39.32,1.82,1.76,1.8C228.86,234.06,234.71,234.12,240.55,234.12Zm-96.62,0c17.53,0,35.07,0,52.6,0,1.89,0,2.23-.55,2.22-2.3-.08-12.82,0-25.64-.05-38.46,0-6.77-3.84-10.7-10.58-10.71q-44.12,0-88.23,0c-6.73,0-10.56,3.94-10.56,10.73,0,12.88,0,25.76,0,38.65,0,1.61.33,2.09,2,2.08C108.86,234.08,126.4,234.11,143.93,234.11ZM134.75,89.76a1.58,1.58,0,0,0-.44.31c-5.22,7.16-12.49,10.61-21.06,11.71-1,.13-1.38.54-1.36,1.58.06,4.45-.07,8.92.1,13.37a29.33,29.33,0,0,0,5.53,16.35c8,10.92,18.72,15.52,32.12,13.53a24.31,24.31,0,0,0,12.64-5.75H148.79c-4.8,0-4.74,0-4.81-4.76,0-1.5.42-1.88,1.89-1.87,7.35.08,14.7,0,22,.07a3,3,0,0,0,2.88-1.56,39.77,39.77,0,0,0,3.86-8.12c1.92-5.62,1.31-11.41,1.5-17.16.06-1.72-.47-2.3-2.16-2.33a66.11,66.11,0,0,1-14.14-1.91C150.32,101,141.46,97.38,134.75,89.76ZM73.24,209.09c0,8.49.05,15.71,0,22.93,0,1.58.28,2.36,2,2.12a22.74,22.74,0,0,1,3.2,0c4.44,0,4.44,0,4.44-4.52,0-12.69,0-25.38.07-38.07a14.7,14.7,0,0,1,3.39-9.18c3.44-4.35,8.08-6.2,13.51-6.22,8,0,16.07-.05,24.11,0,1.55,0,1.85-.24,1.1-1.71q-5.68-11.15-11.19-22.37a2,2,0,0,0-2.31-1.34,40.28,40.28,0,0,0-22.83,9.21c-9.36,7.75-14.58,17.69-15.31,29.89C73,196.66,73.38,203.51,73.24,209.09Zm141.55,1.26V193.4c0-8.27-1.81-16.08-6.33-23.08-7.51-11.63-18.15-18.24-32-19.6a2,2,0,0,0-2.31,1.34q-5.52,11.22-11.19,22.37c-.74,1.47-.45,1.72,1.1,1.71,8-.07,16.07-.06,24.11,0,5.51,0,10.17,1.93,13.63,6.37a17,17,0,0,1,3.36,10.92c0,12.93,0,25.87,0,38.81,0,1.41.26,2,1.84,1.93a40.32,40.32,0,0,1,6,0c1.59.11,1.86-.54,1.84-1.94C214.76,224.93,214.79,217.64,214.79,210.35ZM174.58,98.82c1.16.32,1.75-.32,1.5-1.92-.21-1.36-.23-2.76-.53-4.1-2.82-12.32-10.13-20.86-22.23-24.51-12.4-3.73-23.46-.65-32.58,8.6A30.6,30.6,0,0,0,112.29,94c-.2,1.25.14,1.5,1.36,1.26a28.17,28.17,0,0,0,5.61-1.52c6.5-2.72,11.41-6.8,12-14.48a2.93,2.93,0,0,1,3-2.76,3,3,0,0,1,3.26,2.73c.33,4.88,3.2,8.08,6.91,10.66C153.34,96.08,163.61,97.88,174.58,98.82Zm9.35-6.43c1.71.6,1.74-.43,1.53-1.65s-.44-2.72-.72-4.07c-3.89-18.8-21.7-33.14-40.92-32.74-13.54.29-24.63,5.8-33,16.52A40.7,40.7,0,0,0,102.56,91c-.06.5-.36,1.18.27,1.54a2.75,2.75,0,0,0,3.48-1.61,38.54,38.54,0,0,1,75.35-.17C182,92.14,182.51,92.7,183.93,92.39Zm-30,60a40.54,40.54,0,0,1-19.76,0c3.38,6.74,6.55,13.07,9.88,19.73ZM138.4,176.1a3.34,3.34,0,0,0-.65-1.93q-5-10.09-10.07-20.19c-1.88-3.76-1.88-3.72-6-3.58-1.17,0-1.23.34-.74,1.29q5.88,11.67,11.69,23.38c.25.5.43,1.05,1.16,1C135.32,176.08,136.86,176.1,138.4,176.1Zm11.25,0a22.19,22.19,0,0,1,2.94,0c1.76.24,2.63-.5,3.4-2.08,3.52-7.28,7.18-14.49,10.78-21.72a3,3,0,0,0,.62-1.91,22.18,22.18,0,0,1-2.94,0c-1.76-.25-2.64.5-3.4,2.07-3.52,7.28-7.18,14.49-10.78,21.73A2.92,2.92,0,0,0,149.65,176.11Zm-44.32-69.06c0-2.19,0-4.39,0-6.59,0-1-.24-1.44-1.36-1.45a8,8,0,1,0-.07,16c1,0,1.47-.26,1.43-1.36C105.28,111.45,105.33,109.25,105.33,107.05Zm77.37-.15c0,2.13.06,4.27,0,6.4,0,1.27.28,1.76,1.66,1.72a8.19,8.19,0,0,0,7.94-8.18A8.09,8.09,0,0,0,184,99c-1,0-1.35.28-1.33,1.28C182.74,102.5,182.7,104.7,182.7,106.9Zm-5,27a5,5,0,0,0,2.29-.5c4.44-2.07,6-5.76,5.85-10.41,0-.57.45-1.73-.64-1.58s-2.93-.87-3.33,1.08A44.34,44.34,0,0,1,177.7,134Z"></path><path d="M66.74,143.94c0-3.24,0-3.27,3.29-3.23,3.68,0,3.18-.56,3.21,3.16,0,3.43,0,3.43-3.51,3.43h-.57c-2.42,0-2.42,0-2.42-2.42Z"></path><path d="M66.74,131.1c0-3.26,0-3.26,3.26-3.26s3.24,0,3.24,3.3,0,3.27-3.29,3.27S66.74,134.41,66.74,131.1Z"></path><path d="M73.24,118.2c0,3.29,0,3.29-3.22,3.29s-3.28,0-3.28-3.23S66.74,115,70,115,73.24,115,73.24,118.2Z"></path><path d="M221.29,79.61c0,3.28,0,3.28-3.36,3.28-3.14,0-3.14,0-3.14-3.16s0-3.29,3.38-3.29C221.29,76.44,221.29,76.44,221.29,79.61Z"></path><path d="M221.29,92.59c0,3.14,0,3.14-3.13,3.14-3.37,0-3.37,0-3.37-3.47,0-3,0-3,3-3h.19C221.29,89.31,221.29,89.31,221.29,92.59Z"></path><path d="M221.29,105.36c0,3.23,0,3.23-3.24,3.23s-3.26,0-3.26-3.22,0-3.22,3.26-3.22S221.29,102.15,221.29,105.36Z"></path><path d="M156.85,208.37a12.84,12.84,0,1,1-12.91-12.92A12.91,12.91,0,0,1,156.85,208.37Zm-6.42-.06a6.41,6.41,0,1,0-6.33,6.41A6.38,6.38,0,0,0,150.43,208.31Z"></path><path d="M185.86,216.21c0-3.2,0-6.41,0-9.61,0-1.1.23-1.51,1.44-1.53,5-.07,5-.12,5,4.92,0,5.41,0,10.81,0,16.21,0,1.1-.22,1.51-1.44,1.53-5,.07-5,.12-5-4.92Z"></path><path d="M192.28,195.53c0,3.16,0,3.16-3.12,3.16-3.3,0-3.3,0-3.3-3.35,0-3.07,0-3.07,3-3.07h.19C192.28,192.27,192.28,192.27,192.28,195.53Z"></path><path d="M125.29,118.32c-4.22,0-4.48-.41-3.07-3.79a9.67,9.67,0,0,1,18.29,1.33c.56,2.24.4,2.45-1.91,2.46h-2.08c-1.17,0-2.11.13-2.7-1.48-.78-2.15-4.14-2.49-5-.47C127.85,118.63,126.36,118.37,125.29,118.32Z"></path><path d="M163.32,118.32c-.63,0-1.25,0-1.88,0-.81,0-1.38,0-1.63-1.07a2.79,2.79,0,0,0-2.81-2.11,2.83,2.83,0,0,0-3,2.07c-.3,1.12-.92,1.13-1.77,1.11a22.77,22.77,0,0,0-3.2,0c-1.75.22-1.8-.68-1.58-2a9.75,9.75,0,0,1,9.77-7.76,9.86,9.86,0,0,1,9.32,8.54c.09,1-.23,1.25-1.11,1.19C164.71,118.28,164,118.32,163.32,118.32Z"></path></svg>